<svg version="1.2" xmlns="http://www.w3.org/2000/svg" viewBox="0 0 1300 1300" width="1300" height="1300" stroke="none" style="shape-rendering: crispEdges;">
    <!-- Rectangular background -->
    <rect x="-41" y="-66" width="1410" height="1392" fill="#441830" stroke="none" />
    <!-- Complex path -->
    <path fill="#2b0a23" stroke="none" d="m325 1321l42-126 15-120-35-107-1-78-54-59 18-4-6-34 28 13h21l74-30 44-30-26-42-5-26v-14l-32-25 64 11 14-40-37-29-22-24 11-48-12-31-6-47-63 38-81 52 30-71 40-76 29-36-1-14-77 23 24-32 112-87 22-97 68-104 7 102 40 57 31-22 49-17-30 55-5 45 62-28 71-59 33-78 26 47 17 78 10 84 2 51-43 50 22 52 2 71-12 42-22-34-15 41-8 59 40 43 35 25-63-1 31 31 46 29 35 35 16-7 40 28 12 18 21 24 26 17 21 45 16 17 16 27 2 38-32 18-16 97 31 212z"/>
</svg>
